# xmcd
#
# Track frame offsets:
#	205
#	20937
#	35997
#	55417
#	74370
#	92945
#	119725
#	139722
#	151642
#	181705
#	199267
#	215177
#
# Disc length: 3105 seconds
#
# Revision: 5
# Processed by: cddbd v1.5.1PL2 Copyright (c) Steve Scherf et al.
# Submitted via: dBpowerAMP V4.0
#
DISCID=bd0c1f0c
DTITLE=Clarence Carter - The Best of Clarence Carter: The Dr's Grea
DYEAR=1991
DGENRE=Blues
TTITLE0=Strokin'
TTITLE1=Trying To Sleep Tonight
TTITLE2=Messin' With My Mind
TTITLE3=I Was In The Neighborhood
TTITLE4=Dr. C.C.
TTITLE5=Love Me With A Feeling
TTITLE6=I'm Not Just Good, I'm The Best
TTITLE7=Slip Away
TTITLE8=Grandpa Can't Fly His Kite
TTITLE9=Kiss You All Over
TTITLE10=I've Got A Thing For You Baby
TTITLE11=I'm Between A Rock And A Hard Place
EXTD=
EXTT0=
EXTT1=
EXTT2=
EXTT3=
EXTT4=
EXTT5=
EXTT6=
EXTT7=
EXTT8=
EXTT9=
EXTT10=
EXTT11=
PLAYORDER=
